<svg xmlns="http://www.w3.org/2000/svg" viewBox="0 0 16 16" id="blogger"><path fill="#FF7043" d="M15.592 6.19c-.338-.144-1.787.016-2.189-.347-.284-.262-.302-.736-.413-1.368-.186-1.059-.263-1.299-.456-1.716C11.831 1.273 10.147 0 8.617 0H5.07C2.28 0 0 2.277 0 5.057v5.896C0 13.728 2.28 16 5.07 16h5.827c2.79 0 5.055-2.272 5.071-5.047L16 6.87s0-.505-.408-.68zM5.134 4.133h2.812c.536 0 .971.433.971.962 0 .53-.435.967-.971.967H5.134a.972.972 0 0 1-.971-.967c0-.53.435-.962.971-.962zm5.715 7.708H5.134a.971.971 0 0 1-.971-.962c0-.529.435-.962.971-.962h5.715c.531 0 .966.433.966.962a.97.97 0 0 1-.966.962z"></path></svg>